#N canvas 0 23 1163 803 10;
#X obj 588 61 mom.joy 1;
#X obj 708 61 mom.joy 2;
#X obj 619 253 mom.actuator;
#X obj 25 31 mom.arrayReader;
#X obj 25 60 mom.strip 1;
#X obj 90 586 mol.strip 1;
#X obj 195 62 mom.strip 3;
#X obj 195 252 mom.strip 4;
#X obj 366 63 mom.strip 5;
#X obj 366 253 mom.strip 6;
#X obj 25 251 mom.strip 2;
#X obj 802 251 mom.ui;
#X obj 908 553 mol.ui;
#X obj 250 586 mol.actuator;
#X obj 908 888 print;
#X obj 439 586 mol.joy 1;
#X connect 0 0 2 1;
#X connect 0 1 2 0;
#X connect 12 0 14 0;
